<svg xmlns="http://www.w3.org/2000/svg" width="1040" height="700" viewBox="0 0 1040 700" font-family="Segoe UI, Arial, sans-serif">
  <!-- browser chrome -->
  <rect x="0" y="0" width="1040" height="700" rx="10" fill="#e5e7eb"/>
  <rect x="0" y="0" width="1040" height="46" rx="10" fill="#d1d5db"/>
  <circle cx="22" cy="23" r="6" fill="#ef4444"/><circle cx="42" cy="23" r="6" fill="#f59e0b"/><circle cx="62" cy="23" r="6" fill="#22c55e"/>
  <rect x="92" y="13" width="900" height="22" rx="11" fill="#f8fafc"/>
  <text x="106" y="28" font-size="12" fill="#6b7280">https://merge-console.usat.local/</text>

  <!-- app top nav -->
  <rect x="0" y="46" width="1040" height="48" fill="#1f2937"/>
  <text x="24" y="76" font-size="16" font-weight="bold" fill="#ffffff">Account Merge Console</text>
  <text x="250" y="76" font-size="13" fill="#93c5fd" font-weight="bold">Dashboard</text>
  <text x="340" y="76" font-size="13" fill="#cbd5e1">Duplicates</text>
  <text x="430" y="76" font-size="13" fill="#cbd5e1">Merge-ID</text>
  <text x="512" y="76" font-size="13" fill="#cbd5e1">All Accounts</text>
  <text x="620" y="76" font-size="13" fill="#cbd5e1">History</text>
  <text x="700" y="76" font-size="13" fill="#cbd5e1">Metrics</text>
  <text x="772" y="76" font-size="13" fill="#cbd5e1">Admin</text>
  <text x="828" y="75" font-size="11" fill="#94a3b8" text-anchor="end">env:</text>
  <rect x="836" y="59" width="180" height="24" rx="12" fill="#374151"/>
  <rect x="839" y="61.5" width="86" height="19" rx="9.5" fill="#16a34a"/>
  <text x="882" y="74.5" font-size="11" fill="#ffffff" text-anchor="middle" font-weight="bold">Sandbox</text>
  <text x="971" y="74.5" font-size="11" fill="#cbd5e1" text-anchor="middle">Production</text>

  <!-- page body -->
  <text x="24" y="128" font-size="20" font-weight="bold" fill="#111827">Overview</text>
  <text x="24" y="148" font-size="12" fill="#6b7280">Latest finder run: 2026-06-26 06:00 · 700,682 accounts scanned</text>

  <!-- stat cards row -->
  <g>
    <rect x="24" y="166" width="232" height="92" rx="8" fill="#ffffff" stroke="#e5e7eb"/>
    <text x="40" y="192" font-size="12" fill="#6b7280">Total accounts</text>
    <text x="40" y="226" font-size="26" font-weight="bold" fill="#111827">700,682</text>

    <rect x="268" y="166" width="232" height="92" rx="8" fill="#ffffff" stroke="#e5e7eb"/>
    <text x="284" y="192" font-size="12" fill="#6b7280">Accounts with merge IDs</text>
    <text x="284" y="226" font-size="26" font-weight="bold" fill="#111827">25</text>

    <rect x="512" y="166" width="232" height="92" rx="8" fill="#ffffff" stroke="#e5e7eb"/>
    <text x="528" y="192" font-size="12" fill="#6b7280">Duplicate clusters</text>
    <text x="528" y="226" font-size="26" font-weight="bold" fill="#111827">10,623</text>

    <rect x="756" y="166" width="260" height="92" rx="8" fill="#ffffff" stroke="#e5e7eb"/>
    <text x="772" y="192" font-size="12" fill="#6b7280">Duplicate pairs</text>
    <text x="772" y="226" font-size="26" font-weight="bold" fill="#111827">17,398</text>
  </g>
  <g>
    <rect x="24" y="270" width="232" height="92" rx="8" fill="#ffffff" stroke="#e5e7eb"/>
    <text x="40" y="296" font-size="12" fill="#6b7280">Merges completed</text>
    <text x="40" y="330" font-size="26" font-weight="bold" fill="#16a34a">0</text>

    <rect x="268" y="270" width="232" height="92" rx="8" fill="#ffffff" stroke="#e5e7eb"/>
    <text x="284" y="296" font-size="12" fill="#6b7280">Merges failed</text>
    <text x="284" y="330" font-size="26" font-weight="bold" fill="#dc2626">0</text>

    <rect x="512" y="270" width="232" height="92" rx="8" fill="#ffffff" stroke="#e5e7eb"/>
    <text x="528" y="296" font-size="12" fill="#6b7280">Restorable (≤15 days)</text>
    <text x="528" y="330" font-size="26" font-weight="bold" fill="#111827">0</text>

    <rect x="756" y="270" width="260" height="92" rx="8" fill="#fffbeb" stroke="#fcd34d"/>
    <text x="772" y="296" font-size="12" fill="#92400e">Merge execution</text>
    <text x="772" y="330" font-size="22" font-weight="bold" fill="#b45309">OFF (dry-run)</text>
  </g>

  <!-- duplicates by signal -->
  <rect x="24" y="378" width="476" height="290" rx="8" fill="#ffffff" stroke="#e5e7eb"/>
  <text x="40" y="406" font-size="14" font-weight="bold" fill="#111827">Duplicate pairs by signal</text>
  <!-- bars -->
  <text x="40" y="448" font-size="12" fill="#6b7280">exact</text>
  <rect x="150" y="436" width="320" height="18" rx="4" fill="#2563eb"/><text x="476" y="450" font-size="11" fill="#374151" text-anchor="end">16,139</text>
  <text x="40" y="486" font-size="12" fill="#6b7280">nickname</text>
  <rect x="150" y="474" width="40" height="18" rx="4" fill="#7c3aed"/><text x="200" y="488" font-size="11" fill="#374151">956</text>
  <text x="40" y="524" font-size="12" fill="#6b7280">fuzzy</text>
  <rect x="150" y="512" width="16" height="18" rx="4" fill="#0891b2"/><text x="176" y="526" font-size="11" fill="#374151">333</text>
  <line x1="150" y1="556" x2="470" y2="556" stroke="#e5e7eb"/>
  <text x="40" y="588" font-size="12" fill="#6b7280">Clusters by tier:</text>
  <text x="40" y="612" font-size="12" fill="#111827">exact 9,400  ·  fuzzy 280  ·  nickname 943</text>
  <text x="40" y="644" font-size="11" fill="#9ca3af">Source: salesforce_duplicate_consolidated_cluster (read-only)</text>

  <!-- recent activity -->
  <rect x="516" y="378" width="500" height="290" rx="8" fill="#ffffff" stroke="#e5e7eb"/>
  <text x="532" y="406" font-size="14" font-weight="bold" fill="#111827">Recent activity</text>
  <line x1="532" y1="420" x2="1000" y2="420" stroke="#e5e7eb"/>
  <text x="532" y="446" font-size="12" fill="#374151">06:00  Finder run completed (prod) — 7 views written</text>
  <text x="532" y="476" font-size="12" fill="#374151">06:00  Merge-ID review refreshed — 16 in_both, 9 sf_only</text>
  <text x="532" y="506" font-size="12" fill="#374151">— no merges executed —</text>
  <text x="532" y="536" font-size="12" fill="#9ca3af">Merge history is empty. Open Admin to preview a cluster.</text>
  <rect x="532" y="610" width="170" height="34" rx="6" fill="#2563eb"/>
  <text x="617" y="632" font-size="13" fill="#ffffff" text-anchor="middle" font-weight="bold">Go to Admin →</text>
</svg>
