<svg xmlns="http://www.w3.org/2000/svg" width="1040" height="700" viewBox="0 0 1040 700" font-family="Segoe UI, Arial, sans-serif">
  <rect x="0" y="0" width="1040" height="700" rx="10" fill="#e5e7eb"/>
  <rect x="0" y="0" width="1040" height="46" rx="10" fill="#d1d5db"/>
  <circle cx="22" cy="23" r="6" fill="#ef4444"/><circle cx="42" cy="23" r="6" fill="#f59e0b"/><circle cx="62" cy="23" r="6" fill="#22c55e"/>
  <rect x="92" y="13" width="900" height="22" rx="11" fill="#f8fafc"/>
  <text x="106" y="28" font-size="12" fill="#6b7280">https://merge-console.usat.local/duplicates</text>

  <rect x="0" y="46" width="1040" height="48" fill="#1f2937"/>
  <text x="24" y="76" font-size="16" font-weight="bold" fill="#ffffff">Account Merge Console</text>
  <text x="250" y="76" font-size="13" fill="#cbd5e1">Dashboard</text>
  <text x="340" y="76" font-size="13" fill="#93c5fd" font-weight="bold">Duplicates</text>
  <text x="430" y="76" font-size="13" fill="#cbd5e1">Merge-ID</text>
  <text x="512" y="76" font-size="13" fill="#cbd5e1">All Accounts</text>
  <text x="620" y="76" font-size="13" fill="#cbd5e1">History</text>
  <text x="700" y="76" font-size="13" fill="#cbd5e1">Metrics</text>
  <text x="772" y="76" font-size="13" fill="#cbd5e1">Admin</text>
  <text x="828" y="75" font-size="11" fill="#94a3b8" text-anchor="end">env:</text>
  <rect x="836" y="59" width="180" height="24" rx="12" fill="#374151"/>
  <rect x="839" y="61.5" width="86" height="19" rx="9.5" fill="#16a34a"/>
  <text x="882" y="74.5" font-size="11" fill="#ffffff" text-anchor="middle" font-weight="bold">Sandbox</text>
  <text x="971" y="74.5" font-size="11" fill="#cbd5e1" text-anchor="middle">Production</text>

  <text x="24" y="128" font-size="20" font-weight="bold" fill="#111827">Duplicates</text>
  <text x="24" y="148" font-size="12" fill="#6b7280">10,623 consolidated clusters · 17,398 matched pairs · read-only (source: salesforce_duplicate_consolidated_cluster)</text>

  <!-- filter bar -->
  <rect x="24" y="164" width="992" height="40" rx="8" fill="#ffffff" stroke="#e5e7eb"/>
  <rect x="36" y="173" width="230" height="22" rx="6" fill="#f1f5f9" stroke="#e5e7eb"/>
  <text x="48" y="188" font-size="11" fill="#9ca3af">Search name / account ID …</text>
  <rect x="278" y="173" width="120" height="22" rx="11" fill="#eff6ff" stroke="#bfdbfe"/><text x="338" y="188" font-size="11" fill="#1d4ed8" text-anchor="middle">signal: all ▾</text>
  <rect x="408" y="173" width="110" height="22" rx="11" fill="#eff6ff" stroke="#bfdbfe"/><text x="463" y="188" font-size="11" fill="#1d4ed8" text-anchor="middle">tier: all ▾</text>
  <rect x="528" y="173" width="120" height="22" rx="11" fill="#eff6ff" stroke="#bfdbfe"/><text x="588" y="188" font-size="11" fill="#1d4ed8" text-anchor="middle">size: ≥ 2 ▾</text>
  <rect x="658" y="173" width="150" height="22" rx="11" fill="#eff6ff" stroke="#bfdbfe"/><text x="733" y="188" font-size="11" fill="#1d4ed8" text-anchor="middle">has merge ID: any ▾</text>

  <!-- table -->
  <rect x="24" y="216" width="992" height="452" rx="8" fill="#ffffff" stroke="#e5e7eb"/>
  <text x="40" y="242" font-size="11" fill="#6b7280">CLUSTER</text>
  <text x="150" y="242" font-size="11" fill="#6b7280">NAMES</text>
  <text x="470" y="242" font-size="11" fill="#6b7280">SIZE</text>
  <text x="540" y="242" font-size="11" fill="#6b7280">SIGNAL</text>
  <text x="700" y="242" font-size="11" fill="#6b7280">TIER</text>
  <text x="780" y="242" font-size="11" fill="#6b7280">MERGE ID</text>
  <text x="900" y="242" font-size="11" fill="#6b7280">BEST</text>
  <line x1="40" y1="250" x2="1000" y2="250" stroke="#e5e7eb"/>

  <!-- rows -->
  <g font-size="12" fill="#111827">
    <text x="40" y="278">CL-1042</text><text x="150" y="278">Smith, John / Jon / Johnny</text><text x="478" y="278" text-anchor="end">3</text>
    <text x="540" y="278" fill="#374151">exact + nickname</text><text x="700" y="278" fill="#374151">exact</text>
    <rect x="780" y="266" width="44" height="17" rx="8" fill="#dcfce7"/><text x="802" y="278" fill="#166534" text-anchor="middle" font-size="10">yes</text>
    <text x="900" y="278">96</text>
    <line x1="40" y1="292" x2="1000" y2="292" stroke="#f1f5f9"/>

    <text x="40" y="318">CL-1043</text><text x="150" y="318">Nguyen, An / Anh</text><text x="478" y="318" text-anchor="end">2</text>
    <text x="540" y="318" fill="#374151">exact</text><text x="700" y="318" fill="#374151">exact</text>
    <text x="802" y="318" fill="#9ca3af" text-anchor="middle" font-size="11">—</text><text x="900" y="318">100</text>
    <line x1="40" y1="332" x2="1000" y2="332" stroke="#f1f5f9"/>

    <text x="40" y="358">CL-1044</text><text x="150" y="358">Garcia, Maria / Marie / M.</text><text x="478" y="358" text-anchor="end">4</text>
    <text x="540" y="358" fill="#374151">fuzzy + exact</text><text x="700" y="358" fill="#374151">exact</text>
    <text x="802" y="358" fill="#9ca3af" text-anchor="middle" font-size="11">—</text><text x="900" y="358">92</text>
    <line x1="40" y1="372" x2="1000" y2="372" stroke="#f1f5f9"/>

    <text x="40" y="398">CL-1045</text><text x="150" y="398">O'Brien, Kate / Katie</text><text x="478" y="398" text-anchor="end">2</text>
    <text x="540" y="398" fill="#374151">nickname</text><text x="700" y="398" fill="#7c3aed">nickname</text>
    <text x="802" y="398" fill="#9ca3af" text-anchor="middle" font-size="11">—</text><text x="900" y="398">90</text>
    <line x1="40" y1="412" x2="1000" y2="412" stroke="#f1f5f9"/>

    <text x="40" y="438">CL-1046</text><text x="150" y="438">Patel, Raj / Rajesh</text><text x="478" y="438" text-anchor="end">2</text>
    <text x="540" y="438" fill="#374151">nickname</text><text x="700" y="438" fill="#7c3aed">nickname</text>
    <text x="802" y="438" fill="#9ca3af" text-anchor="middle" font-size="11">—</text><text x="900" y="438">90</text>
    <line x1="40" y1="452" x2="1000" y2="452" stroke="#f1f5f9"/>

    <text x="40" y="478">CL-1047</text><text x="150" y="478">Brown, William / Bill / Will</text><text x="478" y="478" text-anchor="end">3</text>
    <text x="540" y="478" fill="#374151">exact + fuzzy</text><text x="700" y="478" fill="#374151">exact</text>
    <text x="802" y="478" fill="#9ca3af" text-anchor="middle" font-size="11">—</text><text x="900" y="478">94</text>
    <line x1="40" y1="492" x2="1000" y2="492" stroke="#f1f5f9"/>

    <text x="40" y="518">CL-1048</text><text x="150" y="518">Lee, Min / Minh</text><text x="478" y="518" text-anchor="end">2</text>
    <text x="540" y="518" fill="#374151">fuzzy</text><text x="700" y="518" fill="#0891b2">fuzzy</text>
    <text x="802" y="518" fill="#9ca3af" text-anchor="middle" font-size="11">—</text><text x="900" y="518">91</text>
    <line x1="40" y1="532" x2="1000" y2="532" stroke="#f1f5f9"/>

    <text x="40" y="558">CL-1049</text><text x="150" y="558">Davis, Elizabeth / Liz / Beth</text><text x="478" y="558" text-anchor="end">3</text>
    <text x="540" y="558" fill="#374151">nickname</text><text x="700" y="558" fill="#7c3aed">nickname</text>
    <text x="802" y="558" fill="#9ca3af" text-anchor="middle" font-size="11">—</text><text x="900" y="558">90</text>
  </g>
  <line x1="40" y1="572" x2="1000" y2="572" stroke="#e5e7eb"/>

  <!-- footer / pagination -->
  <text x="40" y="610" font-size="12" fill="#6b7280">Showing 1–8 of 10,623</text>
  <text x="40" y="634" font-size="11" fill="#9ca3af">Tip: click a cluster to open it in Admin for master selection + dry-run preview.</text>
  <rect x="846" y="592" width="50" height="26" rx="6" fill="#f3f4f6" stroke="#d1d5db"/><text x="871" y="609" font-size="12" fill="#374151" text-anchor="middle">‹ Prev</text>
  <rect x="906" y="592" width="50" height="26" rx="6" fill="#2563eb"/><text x="931" y="609" font-size="12" fill="#ffffff" text-anchor="middle">Next ›</text>
</svg>
