<svg xmlns="http://www.w3.org/2000/svg" width="1040" height="760" viewBox="0 0 1040 760" font-family="Segoe UI, Arial, sans-serif">
  <!-- browser chrome -->
  <rect x="0" y="0" width="1040" height="760" rx="10" fill="#e5e7eb"/>
  <rect x="0" y="0" width="1040" height="46" rx="10" fill="#d1d5db"/>
  <circle cx="22" cy="23" r="6" fill="#ef4444"/><circle cx="42" cy="23" r="6" fill="#f59e0b"/><circle cx="62" cy="23" r="6" fill="#22c55e"/>
  <rect x="92" y="13" width="900" height="22" rx="11" fill="#f8fafc"/>
  <text x="106" y="28" font-size="12" fill="#6b7280">https://merge-console.usat.local/admin</text>

  <!-- top nav -->
  <rect x="0" y="46" width="1040" height="48" fill="#1f2937"/>
  <text x="24" y="76" font-size="16" font-weight="bold" fill="#ffffff">Account Merge Console</text>
  <text x="250" y="76" font-size="13" fill="#cbd5e1">Dashboard</text>
  <text x="340" y="76" font-size="13" fill="#cbd5e1">Duplicates</text>
  <text x="430" y="76" font-size="13" fill="#cbd5e1">Merge-ID</text>
  <text x="512" y="76" font-size="13" fill="#cbd5e1">All Accounts</text>
  <text x="620" y="76" font-size="13" fill="#cbd5e1">History</text>
  <text x="700" y="76" font-size="13" fill="#cbd5e1">Metrics</text>
  <text x="772" y="76" font-size="13" fill="#93c5fd" font-weight="bold">Admin</text>
  <text x="828" y="75" font-size="11" fill="#94a3b8" text-anchor="end">env:</text>
  <rect x="836" y="59" width="180" height="24" rx="12" fill="#374151"/>
  <rect x="839" y="61.5" width="86" height="19" rx="9.5" fill="#16a34a"/>
  <text x="882" y="74.5" font-size="11" fill="#ffffff" text-anchor="middle" font-weight="bold">Sandbox</text>
  <text x="971" y="74.5" font-size="11" fill="#cbd5e1" text-anchor="middle">Production</text>

  <!-- write-disabled banner -->
  <rect x="24" y="106" width="992" height="40" rx="8" fill="#fffbeb" stroke="#fcd34d"/>
  <text x="40" y="131" font-size="13" fill="#92400e">⚠  Merge execution is OFF (ENABLE_MERGE_EXECUTION=false, DRY_RUN=true). You can preview only — Execute is locked until a reviewer confirms.</text>

  <!-- left: cluster list -->
  <rect x="24" y="158" width="300" height="578" rx="8" fill="#ffffff" stroke="#e5e7eb"/>
  <text x="40" y="184" font-size="14" font-weight="bold" fill="#111827">Duplicate clusters</text>
  <rect x="40" y="196" width="268" height="26" rx="6" fill="#f1f5f9" stroke="#e5e7eb"/>
  <text x="52" y="213" font-size="11" fill="#9ca3af">Filter: has merge ID · size ≥ 2 …</text>
  <!-- selected -->
  <rect x="36" y="232" width="276" height="56" rx="6" fill="#eff6ff" stroke="#2563eb"/>
  <text x="48" y="254" font-size="12" font-weight="bold" fill="#1d4ed8">CL-1042 · Smith, J. (3 records)</text>
  <text x="48" y="274" font-size="11" fill="#2563eb">exact + nickname · in_both</text>
  <!-- others -->
  <rect x="36" y="298" width="276" height="50" rx="6" fill="#f8fafc" stroke="#e5e7eb"/>
  <text x="48" y="318" font-size="12" fill="#111827">CL-1043 · Nguyen, A. (2)</text>
  <text x="48" y="336" font-size="11" fill="#6b7280">exact · ours_only</text>
  <rect x="36" y="358" width="276" height="50" rx="6" fill="#f8fafc" stroke="#e5e7eb"/>
  <text x="48" y="378" font-size="12" fill="#111827">CL-1044 · Garcia, M. (4)</text>
  <text x="48" y="396" font-size="11" fill="#6b7280">fuzzy + exact · multi_signal</text>
  <rect x="36" y="418" width="276" height="50" rx="6" fill="#f8fafc" stroke="#e5e7eb"/>
  <text x="48" y="438" font-size="12" fill="#111827">CL-1045 · OBrien, K. (2)</text>
  <text x="48" y="456" font-size="11" fill="#6b7280">nickname · ours_only</text>
  <text x="40" y="500" font-size="11" fill="#9ca3af">… 10,619 more</text>

  <!-- right: cluster detail -->
  <rect x="340" y="158" width="676" height="578" rx="8" fill="#ffffff" stroke="#e5e7eb"/>
  <text x="358" y="186" font-size="15" font-weight="bold" fill="#111827">Cluster CL-1042 — choose surviving master</text>
  <text x="358" y="206" font-size="11" fill="#6b7280">Live detail fetched from Salesforce (read-only). Pick the master, review survivorship, then preview.</text>

  <!-- member table header -->
  <line x1="358" y1="222" x2="998" y2="222" stroke="#e5e7eb"/>
  <text x="362" y="242" font-size="11" fill="#6b7280">MASTER</text>
  <text x="430" y="242" font-size="11" fill="#6b7280">NAME</text>
  <text x="560" y="242" font-size="11" fill="#6b7280">CREATED</text>
  <text x="650" y="242" font-size="11" fill="#6b7280">LAST ACTIVITY</text>
  <text x="770" y="242" font-size="11" fill="#6b7280">EMAIL</text>
  <text x="930" y="242" font-size="11" fill="#6b7280">CHILDREN</text>
  <line x1="358" y1="250" x2="998" y2="250" stroke="#e5e7eb"/>
  <!-- row 1 master selected -->
  <rect x="358" y="254" width="640" height="34" fill="#eff6ff"/>
  <circle cx="378" cy="271" r="7" fill="#ffffff" stroke="#2563eb" stroke-width="2"/><circle cx="378" cy="271" r="3.5" fill="#2563eb"/>
  <text x="430" y="276" font-size="12" fill="#111827">John Smith · 001…AAA</text>
  <text x="560" y="276" font-size="12" fill="#374151">2019-03-11</text>
  <text x="650" y="276" font-size="12" fill="#374151">2026-05-30</text>
  <text x="770" y="276" font-size="12" fill="#374151">jsmith@x.com</text>
  <text x="946" y="276" font-size="12" fill="#374151">42</text>
  <!-- row 2 -->
  <circle cx="378" cy="307" r="7" fill="#ffffff" stroke="#9ca3af" stroke-width="2"/>
  <text x="430" y="312" font-size="12" fill="#111827">Jon Smith · 001…BBB</text>
  <text x="560" y="312" font-size="12" fill="#374151">2021-08-02</text>
  <text x="650" y="312" font-size="12" fill="#374151">2024-01-14</text>
  <text x="770" y="312" font-size="12" fill="#374151">(blank)</text>
  <text x="946" y="312" font-size="12" fill="#374151">7</text>
  <line x1="358" y1="324" x2="998" y2="324" stroke="#f1f5f9"/>
  <!-- row 3 -->
  <circle cx="378" cy="343" r="7" fill="#ffffff" stroke="#9ca3af" stroke-width="2"/>
  <text x="430" y="348" font-size="12" fill="#111827">Johnny Smith · 001…CCC</text>
  <text x="560" y="348" font-size="12" fill="#374151">2022-11-20</text>
  <text x="650" y="348" font-size="12" fill="#374151">2023-09-01</text>
  <text x="770" y="348" font-size="12" fill="#374151">js@y.com</text>
  <text x="946" y="348" font-size="12" fill="#374151">3</text>
  <line x1="358" y1="364" x2="998" y2="364" stroke="#e5e7eb"/>

  <!-- survivorship + impact -->
  <rect x="358" y="380" width="312" height="150" rx="8" fill="#f8fafc" stroke="#e5e7eb"/>
  <text x="374" y="404" font-size="13" font-weight="bold" fill="#111827">Field survivorship</text>
  <text x="374" y="428" font-size="12" fill="#374151">Email      → master (jsmith@x.com)</text>
  <text x="374" y="450" font-size="12" fill="#374151">Phone      → from 001…BBB</text>
  <text x="374" y="472" font-size="12" fill="#374151">Birthdate  → master</text>
  <text x="374" y="494" font-size="12" fill="#374151">Member #   → master</text>
  <text x="374" y="518" font-size="11" fill="#9ca3af">defaults = master; click a field to override</text>

  <rect x="686" y="380" width="312" height="150" rx="8" fill="#f8fafc" stroke="#e5e7eb"/>
  <text x="702" y="404" font-size="13" font-weight="bold" fill="#111827">Impact preview (dry-run)</text>
  <text x="702" y="428" font-size="12" fill="#374151">2 records will be merged into master</text>
  <text x="702" y="450" font-size="12" fill="#374151">10 child records reparent (opps, memberships…)</text>
  <text x="702" y="472" font-size="12" fill="#374151">2 losing accounts → Recycle Bin (~15 days)</text>
  <text x="702" y="494" font-size="12" fill="#374151">Pre-merge snapshot will be captured</text>
  <text x="702" y="518" font-size="11" fill="#9ca3af">2 Apex merge calls (1 master + ≤2 each)</text>

  <!-- actions -->
  <rect x="358" y="556" width="220" height="44" rx="8" fill="#2563eb"/>
  <text x="468" y="583" font-size="14" font-weight="bold" fill="#ffffff" text-anchor="middle">Preview merge (dry-run)</text>
  <rect x="594" y="556" width="220" height="44" rx="8" fill="#f3f4f6" stroke="#d1d5db"/>
  <text x="704" y="583" font-size="14" font-weight="bold" fill="#9ca3af" text-anchor="middle">🔒 Execute merge</text>
  <text x="358" y="624" font-size="11" fill="#9ca3af">Execute is disabled: requires ENABLE_MERGE_EXECUTION=true, dry-run off, and a confirmation token from the preview.</text>

  <!-- audit note -->
  <line x1="358" y1="648" x2="998" y2="648" stroke="#e5e7eb"/>
  <text x="358" y="676" font-size="11" fill="#6b7280">All writes go through one chokepoint (src/merge_execute.js) using the write-enabled SF user. Every action is logged to salesforce_merge_history.</text>
  <text x="358" y="700" font-size="11" fill="#6b7280">Restore data (losing records + child links + master fields) is saved to salesforce_merge_premerge_snapshot before execution.</text>
</svg>
