<svg xmlns="http://www.w3.org/2000/svg" width="1040" height="760" viewBox="0 0 1040 760" font-family="Segoe UI, Arial, sans-serif">
  <rect x="0" y="0" width="1040" height="760" rx="10" fill="#e5e7eb"/>
  <rect x="0" y="0" width="1040" height="46" rx="10" fill="#d1d5db"/>
  <circle cx="22" cy="23" r="6" fill="#ef4444"/><circle cx="42" cy="23" r="6" fill="#f59e0b"/><circle cx="62" cy="23" r="6" fill="#22c55e"/>
  <rect x="92" y="13" width="900" height="22" rx="11" fill="#f8fafc"/>
  <text x="106" y="28" font-size="12" fill="#6b7280">https://merge-console.usat.local/merge-id</text>

  <rect x="0" y="46" width="1040" height="48" fill="#1f2937"/>
  <text x="24" y="76" font-size="16" font-weight="bold" fill="#ffffff">Account Merge Console</text>
  <text x="250" y="76" font-size="13" fill="#cbd5e1">Dashboard</text>
  <text x="340" y="76" font-size="13" fill="#cbd5e1">Duplicates</text>
  <text x="430" y="76" font-size="13" fill="#93c5fd" font-weight="bold">Merge-ID</text>
  <text x="512" y="76" font-size="13" fill="#cbd5e1">All Accounts</text>
  <text x="620" y="76" font-size="13" fill="#cbd5e1">History</text>
  <text x="700" y="76" font-size="13" fill="#cbd5e1">Metrics</text>
  <text x="772" y="76" font-size="13" fill="#cbd5e1">Admin</text>
  <text x="828" y="75" font-size="11" fill="#94a3b8" text-anchor="end">env:</text>
  <rect x="836" y="59" width="180" height="24" rx="12" fill="#374151"/>
  <rect x="839" y="61.5" width="86" height="19" rx="9.5" fill="#16a34a"/>
  <text x="882" y="74.5" font-size="11" fill="#ffffff" text-anchor="middle" font-weight="bold">Sandbox</text>
  <text x="971" y="74.5" font-size="11" fill="#cbd5e1" text-anchor="middle">Production</text>

  <text x="24" y="124" font-size="20" font-weight="bold" fill="#111827">Merge-ID review</text>
  <text x="24" y="143" font-size="12" fill="#6b7280">Reconcile Salesforce merge IDs against the duplicates we found (source: salesforce_duplicate_merge_id_review) · read-only</text>

  <!-- reconciliation summary banner -->
  <rect x="24" y="154" width="992" height="40" rx="8" fill="#f0f9ff" stroke="#bae6fd"/>
  <text x="40" y="179" font-size="13" fill="#0c4a6e">Reconciliation — merge groups: </text>
  <text x="232" y="179" font-size="13" font-weight="bold" fill="#16a34a">7 matched</text>
  <text x="312" y="179" font-size="13" fill="#0c4a6e">·</text>
  <text x="324" y="179" font-size="13" font-weight="bold" fill="#b45309">2 partial</text>
  <text x="392" y="179" font-size="13" fill="#0c4a6e">·</text>
  <text x="404" y="179" font-size="13" font-weight="bold" fill="#dc2626">2 missing</text>
  <text x="478" y="179" font-size="13" fill="#0c4a6e">   |   25 merge-ID accounts:  </text>
  <text x="690" y="179" font-size="13" font-weight="bold" fill="#16a34a">16 in our duplicates</text>
  <text x="836" y="179" font-size="13" fill="#0c4a6e">·</text>
  <text x="848" y="179" font-size="13" font-weight="bold" fill="#dc2626">9 not found</text>

  <!-- bucket summary cards -->
  <rect x="24" y="206" width="158" height="64" rx="8" fill="#ffffff" stroke="#2563eb"/>
  <text x="38" y="228" font-size="11" fill="#6b7280">in_both</text><text x="38" y="256" font-size="20" font-weight="bold" fill="#1d4ed8">16</text>
  <rect x="194" y="206" width="158" height="64" rx="8" fill="#ffffff" stroke="#e5e7eb"/>
  <text x="208" y="228" font-size="11" fill="#6b7280">sf_only</text><text x="208" y="256" font-size="20" font-weight="bold" fill="#dc2626">9</text>
  <rect x="364" y="206" width="158" height="64" rx="8" fill="#ffffff" stroke="#e5e7eb"/>
  <text x="378" y="228" font-size="11" fill="#6b7280">exact_only</text><text x="378" y="256" font-size="20" font-weight="bold" fill="#111827">21,940</text>
  <rect x="534" y="206" width="158" height="64" rx="8" fill="#ffffff" stroke="#e5e7eb"/>
  <text x="548" y="228" font-size="11" fill="#6b7280">fuzzy_only</text><text x="548" y="256" font-size="20" font-weight="bold" fill="#111827">540</text>
  <rect x="704" y="206" width="150" height="64" rx="8" fill="#ffffff" stroke="#e5e7eb"/>
  <text x="718" y="228" font-size="11" fill="#6b7280">nickname_only</text><text x="718" y="256" font-size="20" font-weight="bold" fill="#111827">1,886</text>
  <rect x="866" y="206" width="150" height="64" rx="8" fill="#ffffff" stroke="#e5e7eb"/>
  <text x="880" y="228" font-size="11" fill="#6b7280">multi_signal</text><text x="880" y="256" font-size="20" font-weight="bold" fill="#111827">3,625</text>

  <!-- search + filter + sort row -->
  <rect x="24" y="284" width="992" height="40" rx="8" fill="#ffffff" stroke="#e5e7eb"/>
  <rect x="36" y="293" width="300" height="22" rx="6" fill="#f1f5f9" stroke="#e5e7eb"/>
  <text x="48" y="308" font-size="11" fill="#9ca3af">🔍  Search name / account ID / merge ID …</text>
  <rect x="348" y="293" width="120" height="22" rx="11" fill="#2563eb"/><text x="408" y="308" font-size="11" fill="#ffffff" text-anchor="middle">has merge ID ✓</text>
  <rect x="478" y="293" width="84" height="22" rx="11" fill="#eff6ff" stroke="#bfdbfe"/><text x="520" y="308" font-size="11" fill="#1d4ed8" text-anchor="middle">in_both</text>
  <rect x="570" y="293" width="84" height="22" rx="11" fill="#eff6ff" stroke="#bfdbfe"/><text x="612" y="308" font-size="11" fill="#1d4ed8" text-anchor="middle">sf_only</text>
  <text x="1000" y="308" font-size="11" fill="#9ca3af" text-anchor="end">click any header to sort ▾</text>

  <!-- table -->
  <rect x="24" y="336" width="992" height="404" rx="8" fill="#ffffff" stroke="#e5e7eb"/>
  <text x="40" y="362" font-size="11" fill="#6b7280">#</text>
  <text x="86" y="362" font-size="11" fill="#1d4ed8" font-weight="bold">ACCOUNT ▲</text>
  <text x="250" y="362" font-size="11" fill="#6b7280">NAME ▾</text>
  <text x="420" y="362" font-size="11" fill="#6b7280">MERGE ID ▾</text>
  <text x="560" y="362" font-size="11" fill="#6b7280">IN OUR DUPLICATES? ▾</text>
  <text x="800" y="362" font-size="11" fill="#6b7280">WHICH LIST ▾</text>
  <text x="920" y="362" font-size="11" fill="#6b7280">BUCKET ▾</text>
  <line x1="40" y1="370" x2="1000" y2="370" stroke="#e5e7eb"/>
  <g font-size="12" fill="#111827">
    <!-- MRG-1001 matched -->
    <text x="40" y="396">1</text><text x="86" y="396">001…AAA</text><text x="250" y="396">John Smith</text><text x="420" y="396" fill="#374151">MRG-1001</text>
    <text x="560" y="396" fill="#166534">✓  CL-1042</text><text x="800" y="396" fill="#374151">exact</text>
    <rect x="920" y="384" width="64" height="17" rx="8" fill="#dbeafe"/><text x="952" y="396" fill="#1e40af" text-anchor="middle" font-size="10">in_both</text>
    <line x1="40" y1="410" x2="1000" y2="410" stroke="#f1f5f9"/>
    <text x="40" y="436">2</text><text x="86" y="436">001…BBB</text><text x="250" y="436">Jon Smith</text><text x="420" y="436" fill="#374151">MRG-1001</text>
    <text x="560" y="436" fill="#166534">✓  CL-1042</text><text x="800" y="436" fill="#374151">exact</text>
    <rect x="920" y="424" width="64" height="17" rx="8" fill="#dbeafe"/><text x="952" y="436" fill="#1e40af" text-anchor="middle" font-size="10">in_both</text>
    <line x1="40" y1="450" x2="1000" y2="450" stroke="#f1f5f9"/>
    <!-- MRG-1003 matched -->
    <text x="40" y="476">3</text><text x="86" y="476">001…GGG</text><text x="250" y="476">Amy Cole</text><text x="420" y="476" fill="#374151">MRG-1003</text>
    <text x="560" y="476" fill="#166534">✓  CL-1210</text><text x="800" y="476" fill="#374151">nickname</text>
    <rect x="920" y="464" width="64" height="17" rx="8" fill="#dbeafe"/><text x="952" y="476" fill="#1e40af" text-anchor="middle" font-size="10">in_both</text>
    <line x1="40" y1="490" x2="1000" y2="490" stroke="#f1f5f9"/>
    <!-- MRG-1005 PARTIAL: one in, one not -->
    <text x="40" y="516">4</text><text x="86" y="516">001…LLL</text><text x="250" y="516">Pat Ng</text><text x="420" y="516" fill="#b45309" font-weight="bold">MRG-1005</text>
    <text x="560" y="516" fill="#166534">✓  CL-1377</text><text x="800" y="516" fill="#374151">exact</text>
    <rect x="920" y="504" width="64" height="17" rx="8" fill="#dbeafe"/><text x="952" y="516" fill="#1e40af" text-anchor="middle" font-size="10">in_both</text>
    <line x1="40" y1="530" x2="1000" y2="530" stroke="#f1f5f9"/>
    <text x="40" y="556">5</text><text x="86" y="556">001…MMM</text><text x="250" y="556">Pat Nguyen</text><text x="420" y="556" fill="#b45309" font-weight="bold">MRG-1005</text>
    <text x="560" y="556" fill="#991b1b">✗  not found</text><text x="800" y="556" fill="#9ca3af">—</text>
    <rect x="920" y="544" width="64" height="17" rx="8" fill="#fee2e2"/><text x="952" y="556" fill="#991b1b" text-anchor="middle" font-size="10">sf_only</text>
    <line x1="40" y1="570" x2="1000" y2="570" stroke="#f1f5f9"/>
    <!-- MRG-1002 missing -->
    <text x="40" y="596">6</text><text x="86" y="596">001…EEE</text><text x="250" y="596">Bob Lee</text><text x="420" y="596" fill="#374151">MRG-1002</text>
    <text x="560" y="596" fill="#991b1b">✗  not found</text><text x="800" y="596" fill="#9ca3af">—</text>
    <rect x="920" y="584" width="64" height="17" rx="8" fill="#fee2e2"/><text x="952" y="596" fill="#991b1b" text-anchor="middle" font-size="10">sf_only</text>
    <line x1="40" y1="610" x2="1000" y2="610" stroke="#f1f5f9"/>
    <!-- MRG-1004 missing -->
    <text x="40" y="636">7</text><text x="86" y="636">001…KKK</text><text x="250" y="636">Sam Diaz</text><text x="420" y="636" fill="#374151">MRG-1004</text>
    <text x="560" y="636" fill="#991b1b">✗  not found</text><text x="800" y="636" fill="#9ca3af">—</text>
    <rect x="920" y="624" width="64" height="17" rx="8" fill="#fee2e2"/><text x="952" y="636" fill="#991b1b" text-anchor="middle" font-size="10">sf_only</text>
  </g>
  <line x1="40" y1="650" x2="1000" y2="650" stroke="#e5e7eb"/>
  <text x="40" y="680" font-size="12" fill="#6b7280">Showing merge-ID accounts 1–7 of 25  ·  filtered to "has merge ID"</text>
  <text x="40" y="702" font-size="11" fill="#9ca3af">✗ = Salesforce wants it merged but our detection didn't flag it (recall gap). Mixed ✓/✗ on one merge ID = partial group.</text>
  <rect x="846" y="664" width="50" height="26" rx="6" fill="#f3f4f6" stroke="#d1d5db"/><text x="871" y="681" font-size="12" fill="#374151" text-anchor="middle">‹ Prev</text>
  <rect x="906" y="664" width="50" height="26" rx="6" fill="#2563eb"/><text x="931" y="681" font-size="12" fill="#ffffff" text-anchor="middle">Next ›</text>
</svg>
