<svg xmlns="http://www.w3.org/2000/svg" width="1040" height="700" viewBox="0 0 1040 700" font-family="Segoe UI, Arial, sans-serif">
  <rect x="0" y="0" width="1040" height="700" rx="10" fill="#e5e7eb"/>
  <rect x="0" y="0" width="1040" height="46" rx="10" fill="#d1d5db"/>
  <circle cx="22" cy="23" r="6" fill="#ef4444"/><circle cx="42" cy="23" r="6" fill="#f59e0b"/><circle cx="62" cy="23" r="6" fill="#22c55e"/>
  <rect x="92" y="13" width="900" height="22" rx="11" fill="#f8fafc"/>
  <text x="106" y="28" font-size="12" fill="#6b7280">https://merge-console.usat.local/metrics</text>

  <rect x="0" y="46" width="1040" height="48" fill="#1f2937"/>
  <text x="24" y="76" font-size="16" font-weight="bold" fill="#ffffff">Account Merge Console</text>
  <text x="250" y="76" font-size="13" fill="#cbd5e1">Dashboard</text>
  <text x="340" y="76" font-size="13" fill="#cbd5e1">Duplicates</text>
  <text x="430" y="76" font-size="13" fill="#cbd5e1">Merge-ID</text>
  <text x="512" y="76" font-size="13" fill="#cbd5e1">All Accounts</text>
  <text x="620" y="76" font-size="13" fill="#cbd5e1">History</text>
  <text x="700" y="76" font-size="13" fill="#93c5fd" font-weight="bold">Metrics</text>
  <text x="772" y="76" font-size="13" fill="#cbd5e1">Admin</text>
  <text x="828" y="75" font-size="11" fill="#94a3b8" text-anchor="end">env:</text>
  <rect x="836" y="59" width="180" height="24" rx="12" fill="#374151"/>
  <rect x="839" y="61.5" width="86" height="19" rx="9.5" fill="#16a34a"/>
  <text x="882" y="74.5" font-size="11" fill="#ffffff" text-anchor="middle" font-weight="bold">Sandbox</text>
  <text x="971" y="74.5" font-size="11" fill="#cbd5e1" text-anchor="middle">Production</text>

  <text x="24" y="128" font-size="20" font-weight="bold" fill="#111827">Metrics</text>
  <text x="24" y="148" font-size="12" fill="#6b7280">Merge throughput + system health (from salesforce_merge_history and the run logbook)</text>

  <rect x="24" y="166" width="232" height="84" rx="8" fill="#ffffff" stroke="#e5e7eb"/>
  <text x="40" y="190" font-size="12" fill="#6b7280">Merges (last 14 days)</text>
  <text x="40" y="222" font-size="24" font-weight="bold" fill="#111827">0</text>
  <rect x="268" y="166" width="232" height="84" rx="8" fill="#ffffff" stroke="#e5e7eb"/>
  <text x="284" y="190" font-size="12" fill="#6b7280">Success rate</text>
  <text x="284" y="222" font-size="24" font-weight="bold" fill="#16a34a">—</text>
  <rect x="512" y="166" width="232" height="84" rx="8" fill="#ffffff" stroke="#e5e7eb"/>
  <text x="528" y="190" font-size="12" fill="#6b7280">Avg cluster size</text>
  <text x="528" y="222" font-size="24" font-weight="bold" fill="#111827">2.6</text>
  <rect x="756" y="166" width="260" height="84" rx="8" fill="#ffffff" stroke="#e5e7eb"/>
  <text x="772" y="190" font-size="12" fill="#6b7280">Daily API calls used</text>
  <text x="772" y="222" font-size="24" font-weight="bold" fill="#111827">18,240 / 100k</text>

  <!-- bar chart: merges/day -->
  <rect x="24" y="266" width="600" height="250" rx="8" fill="#ffffff" stroke="#e5e7eb"/>
  <text x="40" y="292" font-size="14" font-weight="bold" fill="#111827">Merges per day (projected once enabled)</text>
  <line x1="56" y1="476" x2="600" y2="476" stroke="#e5e7eb"/>
  <line x1="56" y1="316" x2="56" y2="476" stroke="#e5e7eb"/>
  <g fill="#c7d2fe">
    <rect x="80" y="446" width="26" height="30"/><rect x="120" y="436" width="26" height="40"/>
    <rect x="160" y="456" width="26" height="20"/><rect x="200" y="420" width="26" height="56"/>
    <rect x="240" y="440" width="26" height="36"/><rect x="280" y="410" width="26" height="66"/>
    <rect x="320" y="450" width="26" height="26"/><rect x="360" y="430" width="26" height="46"/>
    <rect x="400" y="446" width="26" height="30"/><rect x="440" y="416" width="26" height="60"/>
    <rect x="480" y="452" width="26" height="24"/><rect x="520" y="436" width="26" height="40"/>
  </g>
  <text x="312" y="502" font-size="11" fill="#9ca3af" text-anchor="middle">No merges executed yet — chart shows expected shape once execution is enabled</text>

  <!-- donut as filled arc wedges + center hole (renders reliably) -->
  <rect x="640" y="266" width="376" height="250" rx="8" fill="#ffffff" stroke="#e5e7eb"/>
  <text x="656" y="292" font-size="14" font-weight="bold" fill="#111827">Outcome split (projected)</text>
  <path d="M740,400 L740,322 A78,78 0 1 1 663.4,414.6 Z" fill="#16a34a"/>
  <path d="M740,400 L663.4,414.6 A78,78 0 0 1 669.4,366.8 Z" fill="#dc2626"/>
  <path d="M740,400 L669.4,366.8 A78,78 0 0 1 740,322 Z" fill="#9ca3af"/>
  <circle cx="740" cy="400" r="46" fill="#ffffff"/>
  <text x="740" y="404" font-size="12" fill="#6b7280" text-anchor="middle">projected</text>
  <rect x="852" y="372" width="12" height="12" rx="2" fill="#16a34a"/><text x="870" y="382" font-size="12" fill="#374151">Success  72%</text>
  <rect x="852" y="398" width="12" height="12" rx="2" fill="#dc2626"/><text x="870" y="408" font-size="12" fill="#374151">Failed  10%</text>
  <rect x="852" y="424" width="12" height="12" rx="2" fill="#9ca3af"/><text x="870" y="434" font-size="12" fill="#374151">Pending  18%</text>

  <!-- recent jobs table -->
  <rect x="24" y="532" width="992" height="148" rx="8" fill="#ffffff" stroke="#e5e7eb"/>
  <text x="40" y="558" font-size="14" font-weight="bold" fill="#111827">Recent merge jobs</text>
  <line x1="40" y1="570" x2="1000" y2="570" stroke="#e5e7eb"/>
  <text x="40" y="590" font-size="11" fill="#6b7280">JOB</text>
  <text x="150" y="590" font-size="11" fill="#6b7280">MASTER</text>
  <text x="380" y="590" font-size="11" fill="#6b7280">MERGED</text>
  <text x="500" y="590" font-size="11" fill="#6b7280">STATUS</text>
  <text x="650" y="590" font-size="11" fill="#6b7280">DURATION</text>
  <text x="800" y="590" font-size="11" fill="#6b7280">WHEN</text>
  <line x1="40" y1="598" x2="1000" y2="598" stroke="#f1f5f9"/>
  <text x="40" y="628" font-size="12" fill="#9ca3af">— no jobs yet —</text>
  <text x="40" y="660" font-size="11" fill="#9ca3af">Jobs appear here once a merge is previewed, confirmed, and executed from Admin.</text>
</svg>
